M48
METRIC,LZ,000.000
;FILE_FORMAT=3:3
;TYPE=PLATED
;Layer: PTH_Through
;EasyEDA v6.5.54, 2026-03-17 10:50:13
;0643f66b8d034b3da4cfef042a472b58,f3a34b7915604471a17d2c322362abf5,10
;Gerber Generator version 0.2
;Holesize 1 = 0.701 mm
T01C0.701
;Holesize 2 = 0.800 mm
T02C0.800
;Holesize 3 = 0.889 mm
T03C0.889
;Holesize 4 = 0.900 mm
T04C0.900
;Holesize 5 = 1.000 mm
T05C1.000
;Holesize 6 = 1.101 mm
T06C1.101
;Holesize 7 = 1.200 mm
T07C1.200
%
G05
G90
T01
X051054Y025019
X056134Y025019
X057531Y018542
X052451Y018542
T02
X048133Y019415
X048133Y017415
X038608Y019161
X038608Y017161
T03
X055372Y003302
X057912Y003302
X043180Y003302
X040640Y003302
X038100Y003302
T04
X036322Y012319
X046482Y012319
X046609Y007874
X036449Y007874
T05
X059214Y012446
X050514Y012446
X059214Y008128
X050514Y008128
X025527Y026162G85X025527Y026162
X025527Y003302G85X025527Y003302
X007747Y026162G85X007747Y026162
X010287Y026162G85X010287Y026162
X012827Y026162G85X012827Y026162
X015367Y026162G85X015367Y026162
X017907Y026162G85X017907Y026162
X020447Y026162G85X020447Y026162
X022987Y026162G85X022987Y026162
X007747Y003302G85X007747Y003302
X010287Y003302G85X010287Y003302
X012827Y003302G85X012827Y003302
X015367Y003302G85X015367Y003302
X017907Y003302G85X017907Y003302
X020447Y003302G85X020447Y003302
X022987Y003302G85X022987Y003302
T06
X051816Y003302
X049276Y003302
T07
X039624Y024516
X044704Y024506
X042164Y024516
M30
