G04 Layer: BottomSolderMaskLayer*
G04 EasyEDA v6.5.54, 2026-03-17 10:50:13*
G04 0643f66b8d034b3da4cfef042a472b58,f3a34b7915604471a17d2c322362abf5,10*
G04 Gerber Generator version 0.2*
G04 Scale: 100 percent, Rotated: No, Reflected: No *
G04 Dimensions in millimeters *
G04 leading zeros omitted , absolute positions ,4 integer and 5 decimal *
%FSLAX45Y45*%
%MOMM*%

%AMMACRO1*4,1,8,-0.8085,-0.8382,-0.8382,-0.8082,-0.8382,0.8085,-0.8085,0.8382,0.8082,0.8382,0.8382,0.8085,0.8382,-0.8082,0.8082,-0.8382,-0.8085,-0.8382,0*%
%AMMACRO2*4,1,8,-0.871,-0.8382,-0.9007,-0.8082,-0.9007,0.8085,-0.871,0.8382,0.8707,0.8382,0.9007,0.8085,0.9007,-0.8082,0.8707,-0.8382,-0.871,-0.8382,0*%
%AMMACRO3*4,1,8,-0.921,-1.3508,-0.9507,-1.3208,-0.9507,1.3211,-0.921,1.3508,0.9207,1.3508,0.9507,1.3211,0.9507,-1.3208,0.9207,-1.3508,-0.921,-1.3508,0*%
%ADD10C,1.3000*%
%ADD11C,1.5032*%
%ADD12C,1.9016*%
%ADD13MACRO1*%
%ADD14C,1.6764*%
%ADD15MACRO2*%
%ADD16C,0.0119*%
%ADD17C,1.8016*%
%ADD18MACRO3*%
%ADD19O,1.901596X2.701595*%
%ADD20C,1.9812*%
%ADD21C,1.6080*%

%LPD*%
D10*
G01*
X5105400Y2501900D03*
G01*
X5613400Y2501900D03*
G01*
X5753100Y1854200D03*
G01*
X5245100Y1854200D03*
D11*
G01*
X4813300Y1941499D03*
G01*
X4813300Y1741500D03*
G01*
X3860800Y1916099D03*
G01*
X3860800Y1716100D03*
D12*
G01*
X5921400Y1244600D03*
G01*
X5051399Y1244600D03*
G01*
X5921400Y812800D03*
G01*
X5051399Y812800D03*
D13*
G01*
X5537200Y330200D03*
D14*
G01*
X5791200Y330200D03*
G01*
X4318000Y330200D03*
G01*
X4064000Y330200D03*
D13*
G01*
X3810000Y330200D03*
D15*
G01*
X5181600Y330200D03*
D17*
G01*
X4927600Y330200D03*
D18*
G01*
X3962374Y2451608D03*
D19*
G01*
X4470425Y2450592D03*
G01*
X4216400Y2451582D03*
D20*
G01*
X3632200Y1231900D03*
G01*
X4648200Y1231900D03*
G01*
X4660900Y787400D03*
G01*
X3644900Y787400D03*
D21*
G01*
X2552700Y2616200D03*
G01*
X2552700Y330200D03*
G01*
X774700Y2616200D03*
G01*
X1028700Y2616200D03*
G01*
X1282700Y2616200D03*
G01*
X1536700Y2616200D03*
G01*
X1790700Y2616200D03*
G01*
X2044700Y2616200D03*
G01*
X2298700Y2616200D03*
G01*
X774700Y330200D03*
G01*
X1028700Y330200D03*
G01*
X1282700Y330200D03*
G01*
X1536700Y330200D03*
G01*
X1790700Y330200D03*
G01*
X2044700Y330200D03*
G01*
X2298700Y330200D03*
M02*
